<svg width="35" height="39" viewBox="0 0 35 39" fill="none" xmlns="http://www.w3.org/2000/svg">
<path d="M26.25 35.5376C25.0347 35.5376 24.0017 35.0755 23.151 34.1515C22.3003 33.2275 21.875 32.1055 21.875 30.7855C21.875 30.6007 21.8872 30.4091 21.9115 30.2105C21.9358 30.0131 21.9722 29.8351 22.0208 29.6767L11.7396 23.1823C11.3264 23.5783 10.8646 23.8882 10.3542 24.1121C9.84375 24.337 9.30903 24.4495 8.75 24.4495C7.53472 24.4495 6.50174 23.9875 5.65104 23.0635C4.80035 22.1395 4.375 21.0175 4.375 19.6975C4.375 18.3775 4.80035 17.2555 5.65104 16.3315C6.50174 15.4075 7.53472 14.9455 8.75 14.9455C9.30903 14.9455 9.84375 15.0574 10.3542 15.2813C10.8646 15.5062 11.3264 15.8167 11.7396 16.2127L22.0208 9.71825C21.9722 9.55984 21.9358 9.38191 21.9115 9.18444C21.8872 8.98591 21.875 8.79424 21.875 8.60944C21.875 7.28944 22.3003 6.16743 23.151 5.24343C24.0017 4.31942 25.0347 3.85742 26.25 3.85742C27.4653 3.85742 28.4983 4.31942 29.349 5.24343C30.1997 6.16743 30.625 7.28944 30.625 8.60944C30.625 9.92945 30.1997 11.0515 29.349 11.9755C28.4983 12.8995 27.4653 13.3615 26.25 13.3615C25.691 13.3615 25.1563 13.249 24.6458 13.0241C24.1354 12.8002 23.6736 12.4903 23.2604 12.0943L12.9792 18.5887C13.0278 18.7471 13.0642 18.925 13.0885 19.1225C13.1128 19.321 13.125 19.5127 13.125 19.6975C13.125 19.8823 13.1128 20.0734 13.0885 20.2709C13.0642 20.4694 13.0278 20.6479 12.9792 20.8063L23.2604 27.3007C23.6736 26.9047 24.1354 26.5942 24.6458 26.3693C25.1563 26.1454 25.691 26.0335 26.25 26.0335C27.4653 26.0335 28.4983 26.4955 29.349 27.4195C30.1997 28.3435 30.625 29.4655 30.625 30.7855C30.625 32.1055 30.1997 33.2275 29.349 34.1515C28.4983 35.0755 27.4653 35.5376 26.25 35.5376Z" fill="black"/>
</svg>
