<svg width="282" height="46" viewBox="0 0 282 46" fill="none" xmlns="http://www.w3.org/2000/svg">
<path d="M8.05945 44.3516L11.7795 36.2516H29.7795L33.4995 44.3516H41.4795L20.8395 0.491562L0.139453 44.3516H8.05945ZM20.7795 16.1516L26.9595 29.7716H14.5995L20.7795 16.1516ZM43.5954 32.3516C43.5954 36.4916 44.9154 39.6116 47.4954 41.8316C50.0754 44.0516 53.3754 45.1316 57.3954 45.1316C61.4154 45.1316 64.7154 44.0516 67.3554 41.8316C69.9954 39.6116 71.3154 36.3716 71.3154 32.1716V14.1116H64.0554V31.6916C64.0554 36.2516 61.4754 38.5316 57.4554 38.5316C53.4354 38.5316 50.8554 36.3116 50.8554 31.7516V14.1116H43.5954V32.3516ZM86.5352 44.3516V20.6516H93.0752V14.1116H86.5352V2.53156H79.3352V14.1116H75.4352V20.6516H79.3352V44.3516H86.5352ZM104.591 44.3516V26.9516C104.591 22.8116 107.351 19.9316 111.251 19.9316C115.091 19.9316 117.311 22.5116 117.311 26.6516V44.3516H124.451V25.6316C124.451 18.1316 120.371 13.5116 113.411 13.5116C109.271 13.5116 105.971 15.4316 104.591 18.3116V2.53156H97.4515V44.3516H104.591ZM129.354 29.5316C129.354 34.2716 130.794 38.1116 133.734 40.9916C136.674 43.8116 140.574 45.2516 145.314 45.2516C149.814 45.2516 153.534 44.2316 156.474 42.1916V35.4716C153.954 37.8116 150.354 38.9516 145.614 38.9516C140.274 38.9516 136.734 35.8916 136.494 31.0916H159.654C159.714 30.3116 159.774 29.4116 159.774 28.5116C159.774 24.2516 158.394 20.6516 155.634 17.7716C152.934 14.8316 149.394 13.3916 145.014 13.3916C140.454 13.3916 136.674 14.8316 133.734 17.7716C130.794 20.6516 129.354 24.4916 129.354 29.2316V29.5316ZM136.674 25.9916C136.794 24.1916 137.634 22.6916 139.254 21.4316C140.874 20.1716 142.794 19.5116 145.014 19.5116C147.114 19.5116 148.854 20.1716 150.294 21.4316C151.734 22.6916 152.454 24.2516 152.454 25.9916H136.674ZM171.799 44.3516V26.9516C171.799 22.8116 174.739 19.9316 178.819 19.9316C182.839 19.9316 185.239 22.5116 185.239 26.6516V44.3516H192.439V25.6316C192.439 18.1316 188.179 13.5116 180.979 13.5116C176.659 13.5116 173.239 15.4916 171.799 18.4316V14.1116H164.659V44.3516H171.799ZM207.766 44.3516V20.6516H214.306V14.1116H207.766V2.53156H200.566V14.1116H196.666V20.6516H200.566V44.3516H207.766ZM222.282 10.5716C224.622 10.5716 226.542 8.71156 226.542 6.31156C226.542 3.91156 224.622 2.05156 222.282 2.05156C219.882 2.05156 217.962 3.91156 217.962 6.31156C217.962 8.71156 219.882 10.5716 222.282 10.5716ZM225.882 44.3516V14.1116H218.682V44.3516H225.882ZM231.017 41.8916C234.197 44.0516 237.857 45.1316 242.117 45.1316C246.257 45.1316 249.317 44.2316 251.297 42.4316C253.277 40.5716 254.297 38.4116 254.297 35.8316C254.297 32.8916 253.337 30.7916 250.937 29.1716C249.797 28.3916 248.717 27.7316 247.817 27.3116C246.917 26.8916 245.597 26.2916 243.857 25.6316C242.957 25.2716 241.937 24.9116 241.217 24.6716C240.557 24.3716 240.437 24.2516 239.957 24.0116C239.177 23.5316 238.757 22.9316 238.757 22.0916C238.757 20.3516 240.197 19.5116 243.137 19.5116C245.957 19.5116 248.597 20.2916 250.997 21.7916V15.2516C248.837 13.8716 246.137 13.2116 242.837 13.2116C239.717 13.2116 237.137 13.9916 235.037 15.5516C232.997 17.1116 231.977 19.2716 231.977 21.9716C231.977 25.7516 234.137 28.6316 238.397 30.4916C239.777 31.0316 242.297 32.0516 243.497 32.5916C244.157 32.8316 244.757 33.1316 245.417 33.4916C246.797 34.2116 247.337 34.9916 247.337 35.9516C247.337 37.8116 245.417 38.8316 242.237 38.8316C237.737 38.8316 233.957 37.5116 231.017 34.8116V41.8916ZM268.059 44.3516V20.6516H274.599V14.1116H268.059V2.53156H260.859V14.1116H256.959V20.6516H260.859V44.3516H268.059ZM273.262 40.6916C273.262 43.0316 275.242 44.8316 277.462 44.8316C279.682 44.8316 281.602 43.0316 281.602 40.6916C281.602 38.4716 279.682 36.6116 277.462 36.6116C275.242 36.6116 273.262 38.4716 273.262 40.6916Z" fill="white"/>
</svg>
