<svg width="282" height="45" viewBox="0 0 282 45" fill="none" xmlns="http://www.w3.org/2000/svg">
<path d="M8.29578 44L12.0158 35.9H30.0158L33.7358 44H41.7158L21.0758 0.14L0.375781 44H8.29578ZM21.0158 15.8L27.1958 29.42H14.8358L21.0158 15.8ZM43.8317 32C43.8317 36.14 45.1517 39.26 47.7317 41.48C50.3117 43.7 53.6117 44.78 57.6317 44.78C61.6517 44.78 64.9517 43.7 67.5917 41.48C70.2317 39.26 71.5517 36.02 71.5517 31.82V13.76H64.2917V31.34C64.2917 35.9 61.7117 38.18 57.6917 38.18C53.6717 38.18 51.0917 35.96 51.0917 31.4V13.76H43.8317V32ZM86.7716 44V20.3H93.3116V13.76H86.7716V2.18H79.5716V13.76H75.6716V20.3H79.5716V44H86.7716ZM104.828 44V26.6C104.828 22.46 107.588 19.58 111.488 19.58C115.328 19.58 117.548 22.16 117.548 26.3V44H124.688V25.28C124.688 17.78 120.608 13.16 113.648 13.16C109.508 13.16 106.208 15.08 104.828 17.96V2.18H97.6878V44H104.828ZM129.59 29.18C129.59 33.92 131.03 37.76 133.97 40.64C136.91 43.46 140.81 44.9 145.55 44.9C150.05 44.9 153.77 43.88 156.71 41.84V35.12C154.19 37.46 150.59 38.6 145.85 38.6C140.51 38.6 136.97 35.54 136.73 30.74H159.89C159.95 29.96 160.01 29.06 160.01 28.16C160.01 23.9 158.63 20.3 155.87 17.42C153.17 14.48 149.63 13.04 145.25 13.04C140.69 13.04 136.91 14.48 133.97 17.42C131.03 20.3 129.59 24.14 129.59 28.88V29.18ZM136.91 25.64C137.03 23.84 137.87 22.34 139.49 21.08C141.11 19.82 143.03 19.16 145.25 19.16C147.35 19.16 149.09 19.82 150.53 21.08C151.97 22.34 152.69 23.9 152.69 25.64H136.91ZM172.035 44V26.6C172.035 22.46 174.975 19.58 179.055 19.58C183.075 19.58 185.475 22.16 185.475 26.3V44H192.675V25.28C192.675 17.78 188.415 13.16 181.215 13.16C176.895 13.16 173.475 15.14 172.035 18.08V13.76H164.895V44H172.035ZM208.002 44V20.3H214.542V13.76H208.002V2.18H200.802V13.76H196.902V20.3H200.802V44H208.002ZM222.518 10.22C224.858 10.22 226.778 8.36 226.778 5.96C226.778 3.56 224.858 1.7 222.518 1.7C220.118 1.7 218.198 3.56 218.198 5.96C218.198 8.36 220.118 10.22 222.518 10.22ZM226.118 44V13.76H218.918V44H226.118ZM231.253 41.54C234.433 43.7 238.093 44.78 242.353 44.78C246.493 44.78 249.553 43.88 251.533 42.08C253.513 40.22 254.533 38.06 254.533 35.48C254.533 32.54 253.573 30.44 251.173 28.82C250.033 28.04 248.953 27.38 248.053 26.96C247.153 26.54 245.833 25.94 244.093 25.28C243.193 24.92 242.173 24.56 241.453 24.32C240.793 24.02 240.673 23.9 240.193 23.66C239.413 23.18 238.993 22.58 238.993 21.74C238.993 20 240.433 19.16 243.373 19.16C246.193 19.16 248.833 19.94 251.233 21.44V14.9C249.073 13.52 246.373 12.86 243.073 12.86C239.953 12.86 237.373 13.64 235.273 15.2C233.233 16.76 232.213 18.92 232.213 21.62C232.213 25.4 234.373 28.28 238.633 30.14C240.013 30.68 242.533 31.7 243.733 32.24C244.393 32.48 244.993 32.78 245.653 33.14C247.033 33.86 247.573 34.64 247.573 35.6C247.573 37.46 245.653 38.48 242.473 38.48C237.973 38.48 234.193 37.16 231.253 34.46V41.54ZM268.295 44V20.3H274.835V13.76H268.295V2.18H261.095V13.76H257.195V20.3H261.095V44H268.295ZM273.498 40.34C273.498 42.68 275.478 44.48 277.698 44.48C279.918 44.48 281.838 42.68 281.838 40.34C281.838 38.12 279.918 36.26 277.698 36.26C275.478 36.26 273.498 38.12 273.498 40.34Z" fill="black"/>
</svg>
