<svg width="32" height="32" viewBox="0 0 32 32" fill="none" xmlns="http://www.w3.org/2000/svg">
<path d="M11.55 15.9183C10.35 15.9183 9.35 15.4753 8.55 14.5893C7.75 13.7034 7.43333 12.6698 7.6 11.4885L8.25 6.66497C8.51667 4.79462 9.38333 3.24453 10.85 2.01469C12.3167 0.783543 14.0333 0.167969 16 0.167969C17.9667 0.167969 19.6833 0.783543 21.15 2.01469C22.6167 3.24453 23.4833 4.79462 23.75 6.66497L24.4 11.4885C24.5667 12.6698 24.25 13.7034 23.45 14.5893C22.65 15.4753 21.65 15.9183 20.45 15.9183H11.55ZM11.55 11.9807H20.45L19.8 7.2556C19.6667 6.33683 19.242 5.58213 18.526 4.9915C17.8087 4.40086 16.9667 4.10554 16 4.10554C15.0333 4.10554 14.192 4.40086 13.476 4.9915C12.7587 5.58213 12.3333 6.33683 12.2 7.2556L11.55 11.9807ZM0 31.6686V26.156C0 25.0403 0.292 24.0146 0.876 23.0787C1.45867 22.1442 2.23333 21.4309 3.2 20.9387C5.26667 19.9215 7.36667 19.1582 9.5 18.649C11.6333 18.141 13.8 17.8871 16 17.8871C18.2 17.8871 20.3667 18.141 22.5 18.649C24.6333 19.1582 26.7333 19.9215 28.8 20.9387C29.7667 21.4309 30.5413 22.1442 31.124 23.0787C31.708 24.0146 32 25.0403 32 26.156V31.6686H0ZM4 27.731H28V26.156C28 25.795 27.9087 25.4669 27.726 25.1716C27.542 24.8762 27.3 24.6466 27 24.4825C25.2 23.5965 23.3833 22.9317 21.55 22.4881C19.7167 22.0458 17.8667 21.8246 16 21.8246C14.1333 21.8246 12.2833 22.0458 10.45 22.4881C8.61667 22.9317 6.8 23.5965 5 24.4825C4.7 24.6466 4.45867 24.8762 4.276 25.1716C4.092 25.4669 4 25.795 4 26.156V27.731Z" fill="black"/>
</svg>
