<svg width="38" height="34" viewBox="0 0 38 34" fill="none" xmlns="http://www.w3.org/2000/svg">
<path d="M18.8125 33.2174C18.4665 33.2157 18.1263 33.1306 17.8215 32.9694C17.0992 32.556 6.07454e-06 22.999 6.07454e-06 10.7302C-0.00231567 8.57976 0.660958 6.47966 1.90149 4.7096C3.14202 2.93954 4.90093 1.58353 6.94396 0.822169C8.98699 0.060807 11.2172 -0.0697689 13.3375 0.447832C15.4578 0.965432 17.3676 2.10664 18.8125 3.71947C20.2574 2.10664 22.1672 0.965432 24.2875 0.447832C26.4078 -0.0697689 28.638 0.060807 30.681 0.822169C32.7241 1.58353 34.483 2.93954 35.7235 4.7096C36.9641 6.47966 37.6273 8.57976 37.625 10.7302C37.625 22.999 20.5258 32.556 19.8035 32.9694C19.4987 33.1306 19.1585 33.2157 18.8125 33.2174ZM10.75 4.1163C8.96808 4.1163 7.25914 4.81312 5.99913 6.05347C4.73912 7.29381 4.03126 8.97608 4.03126 10.7302C4.03126 19.196 15.3524 26.802 18.8125 28.9184C22.2727 26.802 33.5938 19.196 33.5938 10.7302C33.5922 9.20264 33.0536 7.7227 32.0693 6.54174C31.0851 5.36078 29.7159 4.55161 28.1943 4.25165C26.6727 3.9517 25.0926 4.17946 23.7223 4.89625C22.352 5.61305 21.2759 6.77468 20.677 8.18385C20.5251 8.54777 20.2668 8.85903 19.9348 9.07808C19.6028 9.29714 19.2122 9.4141 18.8125 9.4141C18.4128 9.4141 18.0222 9.29714 17.6902 9.07808C17.3582 8.85903 17.0999 8.54777 16.9481 8.18385C16.4396 6.97833 15.5793 5.94837 14.476 5.22432C13.3727 4.50027 12.076 4.11467 10.75 4.1163Z" fill="black"/>
</svg>
