<svg width="18" height="10" viewBox="0 0 18 10" fill="none" xmlns="http://www.w3.org/2000/svg">
<path d="M17.6438 1.98157L9.66491 9.74654C9.56992 9.83871 9.46702 9.90384 9.3562 9.94194C9.24538 9.98064 9.12665 10 9 10C8.87335 10 8.75462 9.98064 8.6438 9.94194C8.53298 9.90384 8.43008 9.83871 8.33509 9.74654L0.332453 1.98157C0.110817 1.76651 -3.71647e-07 1.4977 -3.85748e-07 1.17512C-3.99848e-07 0.852535 0.118733 0.576038 0.3562 0.345623C0.593667 0.115209 0.870712 9.15614e-07 1.18733 9.01774e-07C1.50396 8.87934e-07 1.781 0.115209 2.01847 0.345623L9 7.11982L15.9815 0.345622C16.2032 0.130569 16.4761 0.023042 16.8003 0.0230419C17.1252 0.0230419 17.4063 0.138249 17.6438 0.368664C17.8813 0.599078 18 0.867895 18 1.17511C18 1.48233 17.8813 1.75115 17.6438 1.98157Z" fill="black"/>
</svg>
