<svg width="72" height="71" viewBox="0 0 72 71" fill="none" xmlns="http://www.w3.org/2000/svg">
<path d="M35.9374 14.5996C31.774 14.5995 27.7041 15.8271 24.2423 18.1272C20.7805 20.4273 18.0824 23.6965 16.4891 27.5215C14.8958 31.3465 14.479 35.5554 15.2912 39.6159C16.1035 43.6765 18.1084 47.4063 21.0524 50.3338C23.0036 52.2933 25.3248 53.8502 27.8828 54.915C30.4409 55.9797 33.1853 56.5314 35.9583 56.5383C38.7314 56.5451 41.4785 56.0071 44.0419 54.955C46.6052 53.9029 48.9342 52.3576 50.8952 50.4077C52.8561 48.4579 54.4102 46.142 55.4684 43.5931C56.5265 41.0441 57.0677 38.3124 57.061 35.5548C57.0542 32.7973 56.4996 30.0682 55.429 27.5244C54.3584 24.9807 52.7929 22.6723 50.8224 20.732C46.8594 16.829 41.5151 14.6272 35.9374 14.5996Z" stroke="black" stroke-linecap="round" stroke-linejoin="round"/>
<path d="M28.8655 8.79171L35.9863 0.792969L43.055 8.88382L54.183 4.63075V15.989L65.3467 17.1718L62.6915 28.4799L70.8766 35.4768L62.7484 42.2475L65.3175 53.5976L54.183 55.0261V66.1435L42.9965 61.9955L36.0025 70.277L28.7777 61.9907L17.7879 66.1581V55.0358L6.52012 53.5782L9.2225 42.2572L1 35.4655L9.268 28.5333L6.642 17.2122L17.7684 15.8839V4.74548L28.8671 8.7901" stroke="black" stroke-linecap="round" stroke-linejoin="round"/>
<path d="M35.9375 24.2974V22.6074M43.9277 27.5891L45.1326 26.391M47.238 35.5347H48.9375M43.9277 43.4802L45.1326 44.6784M35.9375 46.772V48.462M27.9473 43.4802L26.7424 44.6784M24.637 35.5347H22.9375M27.9473 27.5891L26.7424 26.391M35.9375 25.6217L36.9838 26.7505C39.2675 26.9738 41.3755 28.0676 42.8658 29.8027C44.3561 31.5378 45.1129 33.7793 44.9776 36.0571C44.8423 38.3349 43.8253 40.4722 42.1399 42.0207C40.4545 43.5692 38.2317 44.4087 35.9375 44.3631C33.5829 44.5002 31.2699 43.7016 29.5075 42.1429C27.745 40.5843 26.6774 38.3932 26.5395 36.0518C26.4015 33.7103 27.2046 31.4103 28.7721 29.6577C30.3395 27.9051 32.5429 26.8435 34.8975 26.7063L35.9375 25.6217ZM35.9375 31.6376C36.4522 31.6376 36.9618 31.7384 37.4372 31.9342C37.9127 32.1301 38.3448 32.4171 38.7087 32.779C39.0726 33.1409 39.3613 33.5705 39.5582 34.0433C39.7552 34.5162 39.8565 35.0229 39.8565 35.5347C39.8565 36.0465 39.7552 36.5532 39.5582 37.026C39.3613 37.4989 39.0726 37.9285 38.7087 38.2904C38.3448 38.6522 37.9127 38.9393 37.4372 39.1351C36.9618 39.331 36.4522 39.4318 35.9375 39.4318C34.8981 39.4318 33.9013 39.0212 33.1663 38.2904C32.4314 37.5595 32.0185 36.5683 32.0185 35.5347C32.0185 34.5011 32.4314 33.5099 33.1663 32.779C33.9013 32.0482 34.8981 31.6376 35.9375 31.6376Z" stroke="black" stroke-linecap="round" stroke-linejoin="round"/>
</svg>
