<svg width="56" height="61" viewBox="0 0 56 61" fill="none" xmlns="http://www.w3.org/2000/svg">
<path d="M25.087 1.75458C25.9781 1.25969 26.9807 1 28 1C29.0193 1 30.0219 1.25969 30.913 1.75458L53.458 14.2766C53.9254 14.5365 54.3148 14.9167 54.586 15.3777C54.8571 15.8387 55 16.3638 55 16.8986V41.6036C54.9997 42.6735 54.7134 43.7239 54.1706 44.646C53.6278 45.568 52.8484 46.3281 51.913 46.8476L30.913 58.5176C30.0219 59.0125 29.0193 59.2722 28 59.2722C26.9807 59.2722 25.9781 59.0125 25.087 58.5176L4.087 46.8476C3.15207 46.3284 2.3729 45.5687 1.83014 44.6473C1.28739 43.7258 1.00079 42.676 1 41.6066V16.8986C0.999978 16.3638 1.14293 15.8387 1.41405 15.3777C1.68516 14.9167 2.07459 14.5365 2.542 14.2766L25.087 1.75458Z" stroke="black" stroke-linecap="round" stroke-linejoin="round"/>
<path d="M1 15.1367L28 30.1367M28 30.1367L55 15.1367M28 30.1367V60.1367" stroke="black" stroke-linejoin="round"/>
<path d="M14.4995 22.6367L41.4995 7.63672M9.99951 31.1207L18.9995 36.1367" stroke="black" stroke-linecap="round" stroke-linejoin="round"/>
</svg>
