<svg width="37" height="45" viewBox="0 0 37 45" fill="none" xmlns="http://www.w3.org/2000/svg">
<path d="M18.5 44.0312C20.2611 44.0312 34.7312 30.3683 35.1663 21.6608L33.5995 19.4238L35.2778 17.1867V3.97208L20.737 0.96875L18.5 1.75271L16.2629 0.96875L1.72217 4.95037V17.2552L3.4005 19.4249L1.83479 21.6619C2.36258 31.9296 16.7521 44.0312 18.5 44.0312Z" stroke="black" stroke-width="1.5" stroke-linecap="round" stroke-linejoin="round"/>
<path d="M16.2629 0.96875V9.91692L6.19625 17.1867H1.72217M20.737 0.96875V9.91692L30.8037 17.1867H35.2778M35.1652 21.6608L29.9093 21.7271L18.5 13.0483M18.5 13.0483L7.09173 21.6608H1.83479M18.5 13.0483V44.0312" stroke="black" stroke-width="1.5" stroke-linecap="round" stroke-linejoin="round"/>
</svg>
