<svg width="52" height="62" viewBox="0 0 52 62" fill="none" xmlns="http://www.w3.org/2000/svg">
<path d="M8.25083 23.7945C1.94916 19.9154 16.025 1.70703 16.8008 1.70703C17.5767 1.70703 31.7475 20.5487 24.9075 23.652M21.25 25.8687C21.25 26.9059 20.838 27.9007 20.1045 28.6341C19.3711 29.3675 18.3764 29.7795 17.3392 29.7795C16.5657 29.7795 15.8096 29.5502 15.1664 29.1204C14.5233 28.6907 14.022 28.0799 13.726 27.3653C13.43 26.6507 13.3526 25.8644 13.5035 25.1057C13.6544 24.3471 14.0268 23.6503 14.5738 23.1033C15.1207 22.5564 15.8176 22.1839 16.5762 22.033C17.3348 21.8821 18.1212 21.9596 18.8358 22.2556C19.5504 22.5516 20.1612 23.0528 20.5909 23.696C21.0206 24.3391 21.25 25.0952 21.25 25.8687ZM9.26416 23.462C12.605 20.1212 19.3025 11.7454 27.6783 28.4812C41.0575 20.1212 29.2617 27.5945 49.465 15.1495C54.5 26.8187 46.14 36.857 39.4583 43.5545C41.0417 48.5737 45.6175 55.6829 47.8183 60.2904C37.78 58.612 9.32749 55.2712 7.64916 31.7904C0.951659 25.9637 5.97083 30.397 0.95166 26.0745C6.87333 24.317 2.24999 25.6154 9.32749 23.462H9.26416Z" stroke="black" stroke-width="1.5" stroke-linecap="round" stroke-linejoin="round"/>
</svg>
