<svg width="57" height="73" viewBox="0 0 57 73" fill="none" xmlns="http://www.w3.org/2000/svg">
<path d="M9.7793 47.1348H26.0058V63.2705H9.7793V47.1348Z" stroke="black" stroke-linecap="round" stroke-linejoin="round"/>
<path d="M14.1484 51.4773H21.6374V58.9244H14.1484V51.4773ZM30.9982 26.0332H47.2247V42.1689H30.9982V26.0332Z" stroke="black" stroke-linecap="round" stroke-linejoin="round"/>
<path d="M35.3667 30.377H42.8557V37.8241H35.3667V30.377Z" stroke="black" stroke-linecap="round" stroke-linejoin="round"/>
<path d="M39.1557 0.861328H18.5076C17.4366 0.861328 16.5684 1.72469 16.5684 2.78971V9.95952C16.5684 11.0245 17.4366 11.8879 18.5076 11.8879H39.1557C40.2267 11.8879 41.0949 11.0245 41.0949 9.95952V2.78971C41.0949 1.72469 40.2267 0.861328 39.1557 0.861328Z" stroke="black" stroke-linecap="round" stroke-linejoin="round"/>
<path d="M11.0607 6.55664H1V71.5434H56.0002V6.55664H46.3806V11.3758C46.3806 15.325 44.3593 17.2171 41.4596 17.2171H16.204C13.133 17.2171 11.0643 16.0082 11.0643 12.1062L11.0607 6.55664Z" stroke="black" stroke-linecap="round" stroke-linejoin="round"/>
<path d="M9.7793 26.0332H26.0058V42.1689H9.7793V26.0332Z" stroke="black" stroke-linecap="round" stroke-linejoin="round"/>
<path d="M14.1484 30.377H21.6374V37.8241H14.1484V30.377ZM30.9982 58.1373H36.4077V63.5165H30.9982V58.1373ZM36.4058 52.5026H41.8153V57.8818H36.4058V52.5026ZM41.8153 58.1373H47.2247V63.5165H41.8153V58.1373Z" stroke="black" stroke-linecap="round" stroke-linejoin="round"/>
<path d="M31 46.7695H36.3339V52.736H31V46.7695ZM41.6661 46.7695H47V52.736H41.6661V46.7695Z" stroke="black" stroke-linecap="round" stroke-linejoin="round"/>
</svg>
