<svg width="44" height="44" viewBox="0 0 44 44" fill="none" xmlns="http://www.w3.org/2000/svg">
<path d="M22.0002 42.6029C33.3795 42.6029 42.6043 33.3781 42.6043 21.9987C42.6043 10.6193 33.3795 1.39453 22.0002 1.39453C10.6208 1.39453 1.396 10.6193 1.396 21.9987C1.396 33.3781 10.6208 42.6029 22.0002 42.6029Z" stroke="black" stroke-width="1.5" stroke-linecap="round" stroke-linejoin="round"/>
<path d="M22 19.6029V5.70703C25.9642 5.70694 29.7924 7.15225 32.7675 9.77217C35.7425 12.3921 37.6602 16.0068 38.1613 19.9392M40.6875 21.9987H24.3958" stroke="black" stroke-width="1.5" stroke-linecap="round" stroke-linejoin="round"/>
<path d="M21.9998 24.3971C23.323 24.3971 24.3957 23.3245 24.3957 22.0013C24.3957 20.6781 23.323 19.6055 21.9998 19.6055C20.6767 19.6055 19.604 20.6781 19.604 22.0013C19.604 23.3245 20.6767 24.3971 21.9998 24.3971Z" stroke="black" stroke-width="1.5" stroke-linecap="round" stroke-linejoin="round"/>
</svg>
