<svg width="47" height="47" viewBox="0 0 47 47" fill="none" xmlns="http://www.w3.org/2000/svg">
<path d="M1.57324 19.0099C1.57324 19.0099 0.485742 13.1253 2.24991 11.1678C4.01408 9.21027 7.46991 10.1165 9.25824 8.7511C11.0466 7.38568 10.3337 5.87527 13.3666 5.11402C16.3995 4.35277 19.227 5.11402 19.9037 4.59443C20.5803 4.07485 22.2478 1.41652 24.9182 1.40443C27.5887 1.39235 27.8666 2.17777 30.4403 3.22902C33.0141 4.28027 34.2345 5.04152 37.6903 3.14443C41.1462 1.24735 42.6203 2.7336 44.5416 4.82402C46.4628 6.91443 45.9916 10.624 45.7499 11.4457C45.5082 12.2674 44.0703 15.3849 44.167 17.4874C44.2637 19.5899 43.1399 31.7819 41.8953 33.0144C40.6507 34.2469 37.062 34.7786 34.5003 35.1894C31.9387 35.6003 31.1412 34.7182 30.7424 33.2199C30.1503 30.9482 30.247 17.8378 31.3707 14.0919" stroke="black" stroke-width="1.5" stroke-linecap="round" stroke-linejoin="round"/>
<path d="M30.5974 33.147C28.8614 34.0576 26.9736 34.6432 25.027 34.8749C23.0332 34.8749 22.0907 35.0682 21.2328 32.6032C20.7132 31.1411 20.3145 25.027 20.4837 14.877M21.112 33.0382C19.6099 34.0094 17.9004 34.6137 16.1216 34.8024C14.1278 34.8024 13.1974 34.9957 12.3274 32.5186C11.8199 31.0565 11.1191 28.3136 11.2641 18.1515M12.2549 32.857C11.9583 33.3541 11.5395 33.7672 11.0382 34.057C10.537 34.3467 9.97004 34.5035 9.39116 34.5124C7.40949 34.742 6.35824 34.452 4.88408 32.289C4.18324 31.2861 2.81783 28.072 1.57324 18.9974M33.9807 45.3632C35.8295 45.6049 37.1466 45.8103 38.6812 44.7349C40.253 42.4351 41.5545 39.9619 42.5599 37.364C42.5599 36.639 42.8016 35.3703 42.3062 35.3945C39.6492 35.8413 37.0222 36.4506 34.4399 37.219C34.2345 37.509 35.6482 38.657 35.0803 38.7053C34.5124 38.7536 32.9174 37.4003 31.5762 36.917C29.5873 36.5239 27.5613 36.3497 25.5345 36.3974C24.6403 36.3974 22.5016 36.3974 21.692 37.1828C21.3741 37.4939 21.1307 37.8729 20.98 38.2914C20.8293 38.7099 20.7753 39.1571 20.822 39.5995C20.8633 40.0564 21.009 40.4978 21.2478 40.8895C21.4866 41.2813 21.8122 41.613 22.1995 41.859C25.9204 43.6328 29.8953 44.8151 33.9807 45.3632Z" stroke="black" stroke-width="1.5" stroke-linecap="round" stroke-linejoin="round"/>
</svg>
