<svg width="74" height="74" viewBox="0 0 74 74" fill="none" xmlns="http://www.w3.org/2000/svg">
<path d="M51.2039 13.3083C47.1017 10.6089 42.4346 8.88701 37.5621 8.27543C33.2881 7.7165 28.9456 8.01011 24.7856 9.1393C20.6257 10.2685 16.7307 12.2109 13.3259 14.8542C9.92103 17.4975 7.07375 20.7894 4.94859 24.5395C2.82342 28.2897 1.4625 32.4239 0.944466 36.7031C0.42643 40.9824 0.76155 45.3218 1.93046 49.4708C3.09937 53.6197 5.07889 57.4959 7.75465 60.8754C10.4304 64.2548 13.7493 67.0704 17.5197 69.1597C21.29 71.2489 25.437 72.5702 29.721 73.0473C33.1816 73.432 36.6813 73.2668 40.0903 72.5577C41.401 72.2778 42.6118 71.6494 43.5951 70.7388C44.5784 69.8282 45.2977 68.6691 45.6773 67.3838C46.0569 66.0985 46.0826 64.7346 45.7517 63.4359C45.4209 62.1372 44.7457 60.9518 43.7975 60.0048L41.5062 57.7136C40.9862 57.1931 40.5859 56.5655 40.3334 55.8745C40.0809 55.1835 39.9821 54.4457 40.044 53.7126C40.1059 52.9794 40.327 52.2687 40.6918 51.6298C41.0566 50.9909 41.5565 50.4393 42.1564 50.0134C43.1818 49.3324 44.414 49.0338 45.6374 49.1699C46.8607 49.3059 47.9973 49.8679 48.848 50.7576L51.9853 53.8928C52.8896 54.7917 54.0092 55.4437 55.2372 55.7868C56.4652 56.1299 57.7607 56.1526 58.9999 55.8527C60.2392 55.5528 61.3809 54.9404 62.3162 54.0738C63.2514 53.2071 63.949 52.1153 64.3423 50.9025C65.9465 46.0676 66.3991 40.9248 65.6642 35.884C64.9687 31.0329 63.1706 26.4057 60.408 22.3578" stroke="black" stroke-linecap="round" stroke-linejoin="round"/>
<path d="M23.9028 29.3808C26.9355 29.3808 29.394 26.9223 29.394 23.8896C29.394 20.8569 26.9355 18.3984 23.9028 18.3984C20.8701 18.3984 18.4116 20.8569 18.4116 23.8896C18.4116 26.9223 20.8701 29.3808 23.9028 29.3808Z" stroke="black" stroke-linecap="round" stroke-linejoin="round"/>
<path d="M19.8706 59.9296C22.9032 59.9296 25.3617 57.4711 25.3617 54.4384C25.3617 51.4057 22.9032 48.9473 19.8706 48.9473C16.8379 48.9473 14.3794 51.4057 14.3794 54.4384C14.3794 57.4711 16.8379 59.9296 19.8706 59.9296Z" stroke="black" stroke-linecap="round" stroke-linejoin="round"/>
<path d="M14.8669 43.7343C17.8996 43.7343 20.3581 41.2758 20.3581 38.2431C20.3581 35.2104 17.8996 32.752 14.8669 32.752C11.8342 32.752 9.37573 35.2104 9.37573 38.2431C9.37573 41.2758 11.8342 43.7343 14.8669 43.7343Z" stroke="black" stroke-linecap="round" stroke-linejoin="round"/>
<path d="M46.349 35.8556C46.352 33.9825 45.7177 32.164 44.5503 30.6992C43.383 29.2343 41.752 28.2102 39.9254 27.7951C38.0989 27.3799 36.1855 27.5986 34.4997 28.415C32.8138 29.2314 31.4559 30.5971 30.649 32.2875L30.6294 32.264C30.6294 32.264 27.1514 38.7618 23.4502 39.2827C24.8582 42.3063 31.3932 46.8281 39.9315 43.9141L39.9217 43.9024C41.7462 43.4868 43.3755 42.4643 44.5431 41.0021C45.7107 39.54 46.3474 37.7267 46.349 35.8556Z" stroke="black" stroke-linecap="round" stroke-linejoin="round"/>
<path d="M39.9609 27.8029C41.6941 20.935 66.608 -3.82421 72.3929 1.49463C78.1778 6.81346 52.2416 31.9643 46.0044 33.486" stroke="black" stroke-linecap="round" stroke-linejoin="round"/>
</svg>
