<svg width="25" height="25" viewBox="0 0 25 25" fill="none" xmlns="http://www.w3.org/2000/svg">
<path d="M19.6875 21.1458L13.8542 15.3125C13.3333 15.7292 12.7344 16.059 12.0573 16.3021C11.3802 16.5451 10.6597 16.6667 9.89583 16.6667C8.00347 16.6667 6.40208 16.0115 5.09167 14.701C3.78056 13.3899 3.125 11.7882 3.125 9.89583C3.125 8.00347 3.78056 6.40174 5.09167 5.09063C6.40208 3.78021 8.00347 3.125 9.89583 3.125C11.7882 3.125 13.3899 3.78021 14.701 5.09063C16.0115 6.40174 16.6667 8.00347 16.6667 9.89583C16.6667 10.6597 16.5451 11.3802 16.3021 12.0573C16.059 12.7344 15.7292 13.3333 15.3125 13.8542L21.1719 19.7135C21.3628 19.9045 21.4583 20.1389 21.4583 20.4167C21.4583 20.6944 21.3542 20.9375 21.1458 21.1458C20.9549 21.3368 20.7118 21.4323 20.4167 21.4323C20.1215 21.4323 19.8785 21.3368 19.6875 21.1458ZM9.89583 14.5833C11.1979 14.5833 12.3049 14.1278 13.2167 13.2167C14.1278 12.3049 14.5833 11.1979 14.5833 9.89583C14.5833 8.59375 14.1278 7.4868 13.2167 6.575C12.3049 5.66389 11.1979 5.20833 9.89583 5.20833C8.59375 5.20833 7.4868 5.66389 6.575 6.575C5.66389 7.4868 5.20833 8.59375 5.20833 9.89583C5.20833 11.1979 5.66389 12.3049 6.575 13.2167C7.4868 14.1278 8.59375 14.5833 9.89583 14.5833Z" fill="black" fill-opacity="0.6"/>
</svg>
