<svg width="28" height="34" viewBox="0 0 28 34" fill="none" xmlns="http://www.w3.org/2000/svg">
<path d="M23.9167 6.76791H20.5C20.5 3.02864 17.4421 0 13.6667 0C9.89125 0 6.83333 3.02864 6.83333 6.76791H3.41667C1.5375 6.76791 0 8.29069 0 10.1519V30.4556C0 32.3168 1.5375 33.8396 3.41667 33.8396H23.9167C25.7958 33.8396 27.3333 32.3168 27.3333 30.4556V10.1519C27.3333 8.29069 25.7958 6.76791 23.9167 6.76791ZM13.6667 3.38396C15.5458 3.38396 17.0833 4.90674 17.0833 6.76791H10.25C10.25 4.90674 11.7875 3.38396 13.6667 3.38396ZM23.9167 30.4556H3.41667V10.1519H6.83333V13.5358C6.83333 14.4664 7.60208 15.2278 8.54167 15.2278C9.48125 15.2278 10.25 14.4664 10.25 13.5358V10.1519H17.0833V13.5358C17.0833 14.4664 17.8521 15.2278 18.7917 15.2278C19.7313 15.2278 20.5 14.4664 20.5 13.5358V10.1519H23.9167V30.4556Z" fill="black"/>
</svg>
