<svg width="33" height="40" viewBox="0 0 33 40" fill="none" xmlns="http://www.w3.org/2000/svg">
<path d="M23.9167 12.6654H20.5C20.5 8.9261 17.4421 5.89746 13.6667 5.89746C9.89125 5.89746 6.83333 8.9261 6.83333 12.6654H3.41667C1.5375 12.6654 0 14.1882 0 16.0493V36.3531C0 38.2142 1.5375 39.737 3.41667 39.737H23.9167C25.7958 39.737 27.3333 38.2142 27.3333 36.3531V16.0493C27.3333 14.1882 25.7958 12.6654 23.9167 12.6654ZM13.6667 9.28142C15.5458 9.28142 17.0833 10.8042 17.0833 12.6654H10.25C10.25 10.8042 11.7875 9.28142 13.6667 9.28142ZM23.9167 36.3531H3.41667V16.0493H6.83333V19.4333C6.83333 20.3639 7.60208 21.1253 8.54167 21.1253C9.48125 21.1253 10.25 20.3639 10.25 19.4333V16.0493H17.0833V19.4333C17.0833 20.3639 17.8521 21.1253 18.7917 21.1253C19.7313 21.1253 20.5 20.3639 20.5 19.4333V16.0493H23.9167V36.3531Z" fill="black"/>
</svg>
