<svg width="40" height="40" viewBox="0 0 40 40" fill="none" xmlns="http://www.w3.org/2000/svg">
<path d="M19.9219 0C15.9817 0 12.13 1.1684 8.85388 3.35744C5.57775 5.54648 3.02431 8.65786 1.51647 12.2981C0.0086315 15.9384 -0.385888 19.944 0.382802 23.8084C1.15149 27.6729 3.04887 31.2226 5.83499 34.0088C8.62111 36.7949 12.1709 38.6923 16.0353 39.461C19.8998 40.2296 23.9054 39.8351 27.5457 38.3273C31.1859 36.8195 34.2973 34.266 36.4863 30.9899C38.6754 27.7137 39.8438 23.862 39.8438 19.9219C39.8334 14.6414 37.7312 9.58023 33.9974 5.84639C30.2635 2.11254 25.2023 0.0103235 19.9219 0ZM19.9219 37.5C16.4453 37.5 13.0467 36.4691 10.156 34.5376C7.26529 32.606 5.01226 29.8607 3.68181 26.6487C2.35137 23.4368 2.00326 19.9024 2.68152 16.4926C3.35977 13.0827 5.03393 9.95061 7.49227 7.49226C9.95062 5.03392 13.0827 3.35976 16.4926 2.68151C19.9024 2.00325 23.4368 2.35136 26.6487 3.6818C29.8607 5.01225 32.6061 7.26528 34.5376 10.156C36.4691 13.0467 37.5 16.4452 37.5 19.9219C37.4948 24.5823 35.6412 29.0504 32.3458 32.3458C29.0504 35.6412 24.5823 37.4948 19.9219 37.5ZM26.8164 18.9453L17.4414 12.6953C17.2649 12.5791 17.0602 12.5127 16.8491 12.5033C16.6379 12.4939 16.4281 12.5418 16.242 12.6419C16.0558 12.742 15.9002 12.8905 15.7916 13.0719C15.6829 13.2532 15.6254 13.4605 15.625 13.6719V26.1719C15.6252 26.3849 15.6836 26.5939 15.7937 26.7763C15.9038 26.9587 16.0616 27.1076 16.25 27.207C16.435 27.3069 16.6439 27.3542 16.8539 27.3439C17.0639 27.3336 17.2671 27.266 17.4414 27.1484L26.8164 20.8984C26.9776 20.7915 27.1098 20.6464 27.2012 20.476C27.2927 20.3056 27.3405 20.1153 27.3405 19.9219C27.3405 19.7285 27.2927 19.5381 27.2012 19.3677C27.1098 19.1973 26.9776 19.0522 26.8164 18.9453ZM17.9688 23.9844V15.8594L24.0625 19.9219L17.9688 23.9844Z" fill="black"/>
</svg>
