<svg width="35" height="35" viewBox="0 0 35 35" fill="none" xmlns="http://www.w3.org/2000/svg">
<path d="M30.625 24.0623C30.625 24.6165 30.3188 25.0978 29.8521 25.3457L18.3313 31.8207C18.0979 31.9957 17.8063 32.0832 17.5 32.0832C17.1938 32.0832 16.9021 31.9957 16.6688 31.8207L5.14792 25.3457C4.91412 25.2228 4.71846 25.0382 4.5822 24.812C4.44593 24.5857 4.37427 24.3265 4.37501 24.0623V10.9373C4.37501 10.3832 4.68126 9.90192 5.14792 9.654L16.6688 3.179C16.9021 3.004 17.1938 2.9165 17.5 2.9165C17.8063 2.9165 18.0979 3.004 18.3313 3.179L29.8521 9.654C30.3188 9.90192 30.625 10.3832 30.625 10.9373V24.0623ZM7.29167 13.1248V21.8748H9.11459V18.9582H10.2083C10.9819 18.9582 11.7238 18.6509 12.2707 18.1039C12.8177 17.5569 13.125 16.8151 13.125 16.0415C13.125 15.268 12.8177 14.5261 12.2707 13.9791C11.7238 13.4321 10.9819 13.1248 10.2083 13.1248H7.29167ZM9.11459 17.4998V14.5832H9.84376C10.2305 14.5832 10.6015 14.7368 10.875 15.0103C11.1484 15.2838 11.3021 15.6547 11.3021 16.0415C11.3021 16.4283 11.1484 16.7992 10.875 17.0727C10.6015 17.3462 10.2305 17.4998 9.84376 17.4998H9.11459ZM14.2188 13.1248V21.8748H16.0417V18.9582H17.1354L18.0979 21.8748H20.0229L18.8708 18.3894C19.5854 17.8644 20.0521 17.004 20.0521 16.0415C20.0521 15.268 19.7448 14.5261 19.1978 13.9791C18.6508 13.4321 17.909 13.1248 17.1354 13.1248H14.2188ZM16.0417 17.4998V14.5832H16.7708C17.1576 14.5832 17.5285 14.7368 17.802 15.0103C18.0755 15.2838 18.2292 15.6547 18.2292 16.0415C18.2292 16.4283 18.0755 16.7992 17.802 17.0727C17.5285 17.3462 17.1576 17.4998 16.7708 17.4998H16.0417ZM24.7917 13.1248C22.7792 13.1248 21.1458 15.079 21.1458 17.4998C21.1458 19.9207 22.7792 21.8748 24.7917 21.8748C26.8042 21.8748 28.4375 19.9207 28.4375 17.4998C28.4375 15.079 26.8042 13.1248 24.7917 13.1248ZM24.7917 14.9478C25.9 14.9478 26.8042 16.0853 26.8042 17.4998C26.8042 18.9144 25.9 20.0519 24.7917 20.0519C23.6833 20.0519 22.7938 18.9144 22.7938 17.4998C22.7938 16.0853 23.6833 14.9478 24.7917 14.9478Z" fill="black"/>
</svg>
