<svg width="28" height="21" viewBox="0 0 28 21" fill="none" xmlns="http://www.w3.org/2000/svg">
<path d="M0.975465 20.8423V15.5806C0.975465 13.9826 1.25803 12.2872 1.82317 10.4943C2.4078 8.68201 3.24577 6.93787 4.33707 5.26194C5.44786 3.56652 6.78276 2.0952 8.34177 0.848002L12.0834 3.88806C10.8557 5.64194 9.78385 7.47378 8.86793 9.38356C7.9715 11.2739 7.52329 13.3006 7.52329 15.4637V20.8423H0.975465ZM15.9419 20.8423V15.5806C15.9419 13.9826 16.2245 12.2872 16.7896 10.4943C17.3743 8.68201 18.2122 6.93787 19.3035 5.26194C20.4143 3.56652 21.7492 2.0952 23.3082 0.848002L27.0498 3.88806C25.8221 5.64194 24.7503 7.47378 23.8344 9.38356C22.938 11.2739 22.4897 13.3006 22.4897 15.4637V20.8423H15.9419Z" fill="black"/>
</svg>
