<svg width="27" height="31" viewBox="0 0 27 31" fill="none" xmlns="http://www.w3.org/2000/svg">
<path d="M26.625 22.0618C26.625 22.616 26.3188 23.0973 25.8521 23.3452L14.3313 29.8202C14.0979 29.9952 13.8063 30.0827 13.5 30.0827C13.1938 30.0827 12.9021 29.9952 12.6688 29.8202L1.14792 23.3452C0.914122 23.2223 0.718461 23.0377 0.582196 22.8115C0.44593 22.5852 0.374272 22.326 0.375006 22.0618V8.93685C0.375006 8.38268 0.681256 7.90143 1.14792 7.65351L12.6688 1.17852C12.9021 1.00352 13.1938 0.916016 13.5 0.916016C13.8063 0.916016 14.0979 1.00352 14.3313 1.17852L25.8521 7.65351C26.3188 7.90143 26.625 8.38268 26.625 8.93685V22.0618ZM3.29167 11.1243V19.8743H5.11459V16.9577H6.20834C6.98189 16.9577 7.72375 16.6504 8.27073 16.1034C8.81771 15.5564 9.12501 14.8146 9.12501 14.041C9.12501 13.2675 8.81771 12.5256 8.27073 11.9786C7.72375 11.4316 6.98189 11.1243 6.20834 11.1243H3.29167ZM5.11459 15.4993V12.5827H5.84376C6.23053 12.5827 6.60146 12.7363 6.87495 13.0098C7.14844 13.2833 7.30209 13.6542 7.30209 14.041C7.30209 14.4278 7.14844 14.7987 6.87495 15.0722C6.60146 15.3457 6.23053 15.4993 5.84376 15.4993H5.11459ZM10.2188 11.1243V19.8743H12.0417V16.9577H13.1354L14.0979 19.8743H16.0229L14.8708 16.3889C15.5854 15.8639 16.0521 15.0035 16.0521 14.041C16.0521 13.2675 15.7448 12.5256 15.1978 11.9786C14.6508 11.4316 13.909 11.1243 13.1354 11.1243H10.2188ZM12.0417 15.4993V12.5827H12.7708C13.1576 12.5827 13.5285 12.7363 13.802 13.0098C14.0755 13.2833 14.2292 13.6542 14.2292 14.041C14.2292 14.4278 14.0755 14.7987 13.802 15.0722C13.5285 15.3457 13.1576 15.4993 12.7708 15.4993H12.0417ZM20.7917 11.1243C18.7792 11.1243 17.1458 13.0785 17.1458 15.4993C17.1458 17.9202 18.7792 19.8743 20.7917 19.8743C22.8042 19.8743 24.4375 17.9202 24.4375 15.4993C24.4375 13.0785 22.8042 11.1243 20.7917 11.1243ZM20.7917 12.9473C21.9 12.9473 22.8042 14.0848 22.8042 15.4993C22.8042 16.9139 21.9 18.0514 20.7917 18.0514C19.6833 18.0514 18.7938 16.9139 18.7938 15.4993C18.7938 14.0848 19.6833 12.9473 20.7917 12.9473Z" fill="black"/>
</svg>
