<svg width="44" height="32" viewBox="0 0 44 32" fill="none" xmlns="http://www.w3.org/2000/svg">
<path d="M42.9531 5.46875C42.7041 4.54381 42.2166 3.70049 41.5393 3.02318C40.862 2.34587 40.0186 1.85834 39.0937 1.60938C35.6875 0.6875 22 0.6875 22 0.6875C22 0.6875 8.31246 0.6875 4.9062 1.60938C3.98127 1.85834 3.13794 2.34587 2.46063 3.02318C1.78333 3.70049 1.29579 4.54381 1.04683 5.46875C0.410807 8.9426 0.102163 12.4685 0.124955 16C0.102163 19.5315 0.410807 23.0574 1.04683 26.5313C1.29579 27.4562 1.78333 28.2995 2.46063 28.9768C3.13794 29.6541 3.98127 30.1417 4.9062 30.3906C8.31246 31.3125 22 31.3125 22 31.3125C22 31.3125 35.6875 31.3125 39.0937 30.3906C40.0186 30.1417 40.862 29.6541 41.5393 28.9768C42.2166 28.2995 42.7041 27.4562 42.9531 26.5313C43.5891 23.0574 43.8977 19.5315 43.875 16C43.8977 12.4685 43.5891 8.9426 42.9531 5.46875ZM17.625 22.5625V9.4375L28.9843 16L17.625 22.5625Z" fill="black"/>
</svg>
