<svg width="212" height="212" viewBox="0 0 212 212" fill="none" xmlns="http://www.w3.org/2000/svg">
<path d="M68.7485 31.4488C60.3264 31.4383 52.0741 33.8175 44.9501 38.3098C37.8262 42.8022 32.1228 49.2234 28.5026 56.8278C24.8824 64.4321 23.4937 72.9075 24.4981 81.2696C25.5024 89.6316 28.8584 97.5371 34.1763 104.068L105.564 187.859L176.248 104.904L176.6 104.508L176.952 104.068C180.812 99.4123 183.684 94.0195 185.393 88.218C187.102 82.4165 187.612 76.3278 186.892 70.3228C186.172 64.3178 184.237 58.5223 181.205 53.2892C178.173 48.0562 174.108 43.4952 169.256 39.8841C164.404 36.273 158.868 33.6875 152.985 32.285C147.102 30.8824 140.995 30.6923 135.036 31.7261C129.077 32.7599 123.391 34.9961 118.324 38.2984C113.257 41.6006 108.916 45.8998 105.564 50.9341C101.491 44.9308 96.0108 40.0161 89.6009 36.6195C83.191 33.2228 76.0468 31.4476 68.7925 31.4488H68.7485Z" stroke="black" stroke-linecap="round" stroke-linejoin="round"/>
</svg>
