<svg width="46" height="46" viewBox="0 0 46 46" fill="none" xmlns="http://www.w3.org/2000/svg">
<rect x="0.5" y="0.5" width="45" height="45" fill="#FFFFFB" fill-opacity="0.8" stroke="black"/>
<path d="M10.9393 21.9393C10.3536 22.5251 10.3536 23.4749 10.9393 24.0607L20.4853 33.6066C21.0711 34.1924 22.0208 34.1924 22.6066 33.6066C23.1924 33.0208 23.1924 32.0711 22.6066 31.4853L14.1213 23L22.6066 14.5147C23.1924 13.9289 23.1924 12.9792 22.6066 12.3934C22.0208 11.8076 21.0711 11.8076 20.4853 12.3934L10.9393 21.9393ZM34 24.5C34.8284 24.5 35.5 23.8284 35.5 23C35.5 22.1716 34.8284 21.5 34 21.5V24.5ZM12 24.5H34V21.5H12V24.5Z" fill="black" fill-opacity="0.5"/>
</svg>
