<svg width="46" height="46" viewBox="0 0 46 46" fill="none" xmlns="http://www.w3.org/2000/svg">
<rect x="0.5" y="0.5" width="45" height="45" fill="#FFFFFB" fill-opacity="0.8" stroke="black"/>
<path d="M35.0607 24.0607C35.6464 23.4749 35.6464 22.5251 35.0607 21.9393L25.5147 12.3934C24.9289 11.8076 23.9792 11.8076 23.3934 12.3934C22.8076 12.9792 22.8076 13.9289 23.3934 14.5147L31.8787 23L23.3934 31.4853C22.8076 32.0711 22.8076 33.0208 23.3934 33.6066C23.9792 34.1924 24.9289 34.1924 25.5147 33.6066L35.0607 24.0607ZM12 21.5C11.1716 21.5 10.5 22.1716 10.5 23C10.5 23.8284 11.1716 24.5 12 24.5V21.5ZM34 21.5L12 21.5V24.5L34 24.5V21.5Z" fill="black"/>
</svg>
